<svg xmlns="http://www.w3.org/2000/svg" width="1200" height="850" viewBox="0 0 1200 850"><defs><marker id="arrowhead" markerWidth="10" markerHeight="8" refX="9" refY="4" orient="auto" markerUnits="strokeWidth"><path d="M0,0 L0,8 L9,4 z" fill="black" /></marker></defs><rect x="12" y="12" width="1176" height="826" fill="white" stroke="black" stroke-width="2" /><line x1="12" y1="42" x2="1188" y2="42" stroke="black" stroke-width="1" /><line x1="152" y1="12" x2="152" y2="42" stroke="black" stroke-width="1" /><line x1="1048" y1="12" x2="1048" y2="42" stroke="black" stroke-width="1" /><text x="20" y="23" font-family="Arial, sans-serif" font-size="8" fill="black">NODE:</text><text x="160" y="23" font-family="Arial, sans-serif" font-size="8" fill="black">TITLE:</text><text x="1056" y="23" font-family="Arial, sans-serif" font-size="8" fill="black">NUMBER:</text><text x="20" y="36" font-family="Arial, sans-serif" font-size="14" fill="black" font-weight="bold">A-0</text><text x="160" y="36" font-family="Arial, sans-serif" font-size="14" fill="black" font-weight="bold">Column Comments Mission (Context)</text><text x="1056" y="36" font-family="Arial, sans-serif" font-size="14" fill="black" font-weight="bold">0.2</text><line x1="12" y1="788" x2="1188" y2="788" stroke="black" stroke-width="1" /><line x1="968" y1="788" x2="968" y2="838" stroke="black" stroke-width="1" /><text x="20" y="800" font-family="Arial, sans-serif" font-size="8" fill="black">USED AT:</text><text x="976" y="800" font-family="Arial, sans-serif" font-size="8" fill="black">NODE:</text><text x="20" y="814" font-family="Arial, sans-serif" font-size="9" fill="black">AUTHOR: Claude    DATE: 2026-05-19    REV: 0.2</text><text x="976" y="814" font-family="Arial, sans-serif" font-size="9" fill="black" font-weight="bold">A-0</text><text x="20" y="828" font-family="Arial, sans-serif" font-size="9" fill="black">PROJECT: Column Comments Enrichment Mission    VIEWPOINT: Data Governance engineer operating the mission</text><text x="976" y="828" font-family="Arial, sans-serif" font-size="9" fill="black">TITLE: Column Comments Mission (Context)</text><path d="M 12.00,410.00 L 525.00,410.00" fill="none" stroke="black" stroke-width="1.5" marker-end="url(#arrowhead)" /><path d="M 550.00,42.00 L 550.00,362.50" fill="none" stroke="black" stroke-width="1.5" marker-end="url(#arrowhead)" /><path d="M 575.00,42.00 L 575.00,362.50" fill="none" stroke="black" stroke-width="1.5" marker-end="url(#arrowhead)" /><path d="M 600.00,42.00 L 600.00,362.50" fill="none" stroke="black" stroke-width="1.5" marker-end="url(#arrowhead)" /><path d="M 625.00,42.00 L 625.00,362.50" fill="none" stroke="black" stroke-width="1.5" marker-end="url(#arrowhead)" /><path d="M 650.00,42.00 L 650.00,362.50" fill="none" stroke="black" stroke-width="1.5" marker-end="url(#arrowhead)" /><path d="M 675.00,394.17 L 1188.00,394.17" fill="none" stroke="black" stroke-width="1.5" marker-end="url(#arrowhead)" /><path d="M 675.00,425.83 L 1188.00,425.83" fill="none" stroke="black" stroke-width="1.5" marker-end="url(#arrowhead)" /><path d="M 550.00,788.00 L 550.00,457.50" fill="none" stroke="black" stroke-width="1.5" marker-end="url(#arrowhead)" /><path d="M 575.00,788.00 L 575.00,457.50" fill="none" stroke="black" stroke-width="1.5" marker-end="url(#arrowhead)" /><path d="M 600.00,788.00 L 600.00,457.50" fill="none" stroke="black" stroke-width="1.5" marker-end="url(#arrowhead)" /><path d="M 625.00,788.00 L 625.00,457.50" fill="none" stroke="black" stroke-width="1.5" marker-end="url(#arrowhead)" /><path d="M 650.00,788.00 L 650.00,457.50" fill="none" stroke="black" stroke-width="1.5" marker-end="url(#arrowhead)" /><rect x="525.0" y="362.5" width="150" height="95" fill="white" stroke="black" stroke-width="1.5" /><text x="600.0" y="387.8333333333333" font-family="Arial, sans-serif" font-size="13" fill="black" font-weight="bold" text-anchor="middle">Enrich Data Lake</text><text x="600.0" y="402.8333333333333" font-family="Arial, sans-serif" font-size="13" fill="black" font-weight="bold" text-anchor="middle">Table DDL with</text><text x="600.0" y="417.8333333333333" font-family="Arial, sans-serif" font-size="13" fill="black" font-weight="bold" text-anchor="middle">Standardized</text><text x="600.0" y="432.8333333333333" font-family="Arial, sans-serif" font-size="13" fill="black" font-weight="bold" text-anchor="middle">Column Comments</text><text x="669.0" y="451.5" font-family="Arial, sans-serif" font-size="10" fill="black" text-anchor="end">A0</text><rect x="220.10" y="392.00" width="96.80" height="14.00" fill="white" stroke="none" /><text x="268.5" y="403.0" font-family="Arial, sans-serif" font-size="10" fill="black" text-anchor="middle">Target Table DDL</text><rect x="22.00" y="393.00" width="16.00" height="13.00" fill="white" stroke="none" /><text x="30.0" y="403.0" font-family="Arial, sans-serif" font-size="9" fill="black" font-weight="bold" text-anchor="middle">I1</text><rect x="449.20" y="195.25" width="96.80" height="14.00" fill="white" stroke="none" /><text x="497.59999999999997" y="206.25" font-family="Arial, sans-serif" font-size="10" fill="black" text-anchor="middle">Per-Table Config</text><rect x="554.00" y="53.50" width="16.00" height="13.00" fill="white" stroke="none" /><text x="562.0" y="63.5" font-family="Arial, sans-serif" font-size="9" fill="black" font-weight="bold" text-anchor="middle">C0</text><rect x="410.40" y="163.20" width="160.60" height="14.00" fill="white" stroke="none" /><text x="490.7" y="174.20000000000002" font-family="Arial, sans-serif" font-size="10" fill="black" text-anchor="middle">Column Description Standard</text><rect x="579.00" y="53.50" width="16.00" height="13.00" fill="white" stroke="none" /><text x="587.0" y="63.5" font-family="Arial, sans-serif" font-size="9" fill="black" font-weight="bold" text-anchor="middle">C1</text><rect x="510.80" y="227.30" width="85.20" height="14.00" fill="white" stroke="none" /><text x="553.4" y="238.29999999999998" font-family="Arial, sans-serif" font-size="10" fill="black" text-anchor="middle">255-Char Limit</text><rect x="604.00" y="53.50" width="16.00" height="13.00" fill="white" stroke="none" /><text x="612.0" y="63.5" font-family="Arial, sans-serif" font-size="9" fill="black" font-weight="bold" text-anchor="middle">C2</text><rect x="629.00" y="195.25" width="149.00" height="14.00" fill="white" stroke="none" /><text x="703.5" y="206.25" font-family="Arial, sans-serif" font-size="10" fill="black" text-anchor="middle">Certified Data Dictionary</text><rect x="629.00" y="53.50" width="16.00" height="13.00" fill="white" stroke="none" /><text x="637.0" y="63.5" font-family="Arial, sans-serif" font-size="9" fill="black" font-weight="bold" text-anchor="middle">C3</text><rect x="479.60" y="131.15" width="166.40" height="14.00" fill="white" stroke="none" /><text x="562.8000000000001" y="142.14999999999998" font-family="Arial, sans-serif" font-size="10" fill="black" text-anchor="middle">Moon Units Stage Conventions</text><rect x="654.00" y="53.50" width="16.00" height="13.00" fill="white" stroke="none" /><text x="662.0" y="63.5" font-family="Arial, sans-serif" font-size="9" fill="black" font-weight="bold" text-anchor="middle">C4</text><rect x="891.80" y="376.17" width="79.40" height="14.00" fill="white" stroke="none" /><text x="931.5" y="387.1666666666667" font-family="Arial, sans-serif" font-size="10" fill="black" text-anchor="middle">Validated DDL</text><rect x="1162.00" y="377.17" width="16.00" height="13.00" fill="white" stroke="none" /><text x="1170.0" y="387.1666666666667" font-family="Arial, sans-serif" font-size="9" fill="black" font-weight="bold" text-anchor="middle">O1</text><rect x="886.00" y="407.83" width="91.00" height="14.00" fill="white" stroke="none" /><text x="931.5" y="418.8333333333333" font-family="Arial, sans-serif" font-size="10" fill="black" text-anchor="middle">Audit Artifacts</text><rect x="1162.00" y="408.83" width="16.00" height="13.00" fill="white" stroke="none" /><text x="1170.0" y="418.8333333333333" font-family="Arial, sans-serif" font-size="9" fill="black" font-weight="bold" text-anchor="middle">O2</text><rect x="426.00" y="615.75" width="120.00" height="14.00" fill="white" stroke="none" /><text x="486.0" y="626.75" font-family="Arial, sans-serif" font-size="10" fill="black" text-anchor="middle">Moon Units Framework</text><rect x="554.00" y="763.50" width="16.00" height="13.00" fill="white" stroke="none" /><text x="562.0" y="773.5" font-family="Arial, sans-serif" font-size="9" fill="black" font-weight="bold" text-anchor="middle">M1</text><rect x="456.80" y="648.80" width="114.20" height="14.00" fill="white" stroke="none" /><text x="513.9" y="659.8" font-family="Arial, sans-serif" font-size="10" fill="black" text-anchor="middle">Claude Sonnet Agent</text><rect x="579.00" y="763.50" width="16.00" height="13.00" fill="white" stroke="none" /><text x="587.0" y="773.5" font-family="Arial, sans-serif" font-size="9" fill="black" font-weight="bold" text-anchor="middle">M2</text><rect x="528.20" y="582.70" width="67.80" height="14.00" fill="white" stroke="none" /><text x="562.1" y="593.7" font-family="Arial, sans-serif" font-size="10" fill="black" text-anchor="middle">Alation API</text><rect x="604.00" y="763.50" width="16.00" height="13.00" fill="white" stroke="none" /><text x="612.0" y="773.5" font-family="Arial, sans-serif" font-size="9" fill="black" font-weight="bold" text-anchor="middle">M3</text><rect x="629.00" y="615.75" width="85.20" height="14.00" fill="white" stroke="none" /><text x="671.6" y="626.75" font-family="Arial, sans-serif" font-size="10" fill="black" text-anchor="middle">Confluence API</text><rect x="629.00" y="763.50" width="16.00" height="13.00" fill="white" stroke="none" /><text x="637.0" y="773.5" font-family="Arial, sans-serif" font-size="9" fill="black" font-weight="bold" text-anchor="middle">M4</text><rect x="566.60" y="681.85" width="79.40" height="14.00" fill="white" stroke="none" /><text x="606.3000000000001" y="692.85" font-family="Arial, sans-serif" font-size="10" fill="black" text-anchor="middle">Lake Registry</text><rect x="654.00" y="763.50" width="16.00" height="13.00" fill="white" stroke="none" /><text x="662.0" y="773.5" font-family="Arial, sans-serif" font-size="9" fill="black" font-weight="bold" text-anchor="middle">M5</text></svg>