<svg xmlns="http://www.w3.org/2000/svg" width="1200" height="850" viewBox="0 0 1200 850"><defs><marker id="arrowhead" markerWidth="10" markerHeight="8" refX="9" refY="4" orient="auto" markerUnits="strokeWidth"><path d="M0,0 L0,8 L9,4 z" fill="black" /></marker></defs><rect x="12" y="12" width="1176" height="826" fill="white" stroke="black" stroke-width="2" /><line x1="12" y1="42" x2="1188" y2="42" stroke="black" stroke-width="1" /><line x1="152" y1="12" x2="152" y2="42" stroke="black" stroke-width="1" /><line x1="1048" y1="12" x2="1048" y2="42" stroke="black" stroke-width="1" /><text x="20" y="23" font-family="Arial, sans-serif" font-size="8" fill="black">NODE:</text><text x="160" y="23" font-family="Arial, sans-serif" font-size="8" fill="black">TITLE:</text><text x="1056" y="23" font-family="Arial, sans-serif" font-size="8" fill="black">NUMBER:</text><text x="20" y="36" font-family="Arial, sans-serif" font-size="14" fill="black" font-weight="bold">A0</text><text x="160" y="36" font-family="Arial, sans-serif" font-size="14" fill="black" font-weight="bold">Enrich Data Lake Table DDL with Standardized Column Comments</text><text x="1056" y="36" font-family="Arial, sans-serif" font-size="14" fill="black" font-weight="bold">0.2</text><line x1="12" y1="788" x2="1188" y2="788" stroke="black" stroke-width="1" /><line x1="968" y1="788" x2="968" y2="838" stroke="black" stroke-width="1" /><text x="20" y="800" font-family="Arial, sans-serif" font-size="8" fill="black">USED AT:</text><text x="976" y="800" font-family="Arial, sans-serif" font-size="8" fill="black">NODE:</text><text x="20" y="814" font-family="Arial, sans-serif" font-size="9" fill="black">AUTHOR: Claude    DATE: 2026-05-19    REV: 0.2</text><text x="976" y="814" font-family="Arial, sans-serif" font-size="9" fill="black" font-weight="bold">A0</text><text x="20" y="828" font-family="Arial, sans-serif" font-size="9" fill="black">PROJECT: Column Comments Enrichment Mission    VIEWPOINT: Data Governance engineer operating the mission</text><text x="976" y="828" font-family="Arial, sans-serif" font-size="9" fill="black">TITLE: Enrich Data Lake Table DDL with Standardized Column Comments</text><path d="M 12.00,179.50 L 152.00,179.50" fill="none" stroke="black" stroke-width="1.5" marker-end="url(#arrowhead)" /><path d="M 202.00,42.00 L 202.00,132.00" fill="none" stroke="black" stroke-width="1.5" marker-end="url(#arrowhead)" /><path d="M 202.00,42.00 L 202.00,79.00 Q 202.00,87.00 210.00,87.00 L 380.50,87.00 Q 388.50,87.00 388.50,95.00 L 388.50,247.25" fill="none" stroke="black" stroke-width="1.5" marker-end="url(#arrowhead)" /><circle cx="202.00" cy="42.00" r="3" fill="black" /><path d="M 575.00,42.00 L 575.00,362.50" fill="none" stroke="black" stroke-width="1.5" marker-end="url(#arrowhead)" /><path d="M 625.00,42.00 L 625.00,362.50" fill="none" stroke="black" stroke-width="1.5" marker-end="url(#arrowhead)" /><path d="M 625.00,42.00 L 625.00,79.00 Q 625.00,87.00 633.00,87.00 L 778.50,87.00 Q 786.50,87.00 786.50,95.00 L 786.50,477.75" fill="none" stroke="black" stroke-width="1.5" marker-end="url(#arrowhead)" /><circle cx="625.00" cy="42.00" r="3" fill="black" /><path d="M 438.50,42.00 L 438.50,247.25" fill="none" stroke="black" stroke-width="1.5" marker-end="url(#arrowhead)" /><path d="M 252.00,42.00 L 252.00,132.00" fill="none" stroke="black" stroke-width="1.5" marker-end="url(#arrowhead)" /><path d="M 252.00,42.00 L 252.00,79.00 Q 252.00,87.00 260.00,87.00 L 965.00,87.00 Q 973.00,87.00 973.00,95.00 L 973.00,593.00" fill="none" stroke="black" stroke-width="1.5" marker-end="url(#arrowhead)" /><circle cx="252.00" cy="42.00" r="3" fill="black" /><path d="M 202.00,788.00 L 202.00,227.00" fill="none" stroke="black" stroke-width="1.5" marker-end="url(#arrowhead)" /><path d="M 202.00,788.00 L 202.00,812.00 Q 202.00,820.00 210.00,820.00 L 965.00,820.00 Q 973.00,820.00 973.00,812.00 L 973.00,688.00" fill="none" stroke="black" stroke-width="1.5" marker-end="url(#arrowhead)" /><circle cx="202.00" cy="788.00" r="3" fill="black" /><path d="M 376.00,788.00 L 376.00,342.25" fill="none" stroke="black" stroke-width="1.5" marker-end="url(#arrowhead)" /><path d="M 376.00,788.00 L 376.00,812.00 Q 376.00,820.00 384.00,820.00 L 592.00,820.00 Q 600.00,820.00 600.00,812.00 L 600.00,457.50" fill="none" stroke="black" stroke-width="1.5" marker-end="url(#arrowhead)" /><path d="M 376.00,788.00 L 376.00,812.00 Q 376.00,820.00 384.00,820.00 L 778.50,820.00 Q 786.50,820.00 786.50,812.00 L 786.50,572.75" fill="none" stroke="black" stroke-width="1.5" marker-end="url(#arrowhead)" /><circle cx="376.00" cy="788.00" r="3" fill="black" /><path d="M 413.50,788.00 L 413.50,342.25" fill="none" stroke="black" stroke-width="1.5" marker-end="url(#arrowhead)" /><path d="M 451.00,788.00 L 451.00,342.25" fill="none" stroke="black" stroke-width="1.5" marker-end="url(#arrowhead)" /><path d="M 252.00,788.00 L 252.00,227.00" fill="none" stroke="black" stroke-width="1.5" marker-end="url(#arrowhead)" /><path d="M 302.00,163.67 L 312.25,163.67 Q 320.25,163.67 320.25,171.67 L 320.25,286.75 Q 320.25,294.75 328.25,294.75 L 338.50,294.75" fill="none" stroke="black" stroke-width="1.5" marker-end="url(#arrowhead)" /><path d="M 302.00,195.33 L 871.75,195.33 Q 879.75,195.33 879.75,203.33 L 879.75,600.83 Q 879.75,608.83 887.75,608.83 L 898.00,608.83" fill="none" stroke="black" stroke-width="1.5" marker-end="url(#arrowhead)" /><path d="M 488.50,278.92 L 498.75,278.92 Q 506.75,278.92 506.75,286.92 L 506.75,402.00 Q 506.75,410.00 514.75,410.00 L 525.00,410.00" fill="none" stroke="black" stroke-width="1.5" marker-end="url(#arrowhead)" /><path d="M 488.50,310.58 L 498.75,310.58 Q 506.75,310.58 506.75,318.58 L 506.75,616.67 Q 506.75,624.67 514.75,624.67 L 898.00,624.67" fill="none" stroke="black" stroke-width="1.5" marker-end="url(#arrowhead)" /><path d="M 675.00,394.17 L 685.25,394.17 Q 693.25,394.17 693.25,402.17 L 693.25,517.25 Q 693.25,525.25 701.25,525.25 L 711.50,525.25" fill="none" stroke="black" stroke-width="1.5" marker-end="url(#arrowhead)" /><path d="M 675.00,425.83 L 685.25,425.83 Q 693.25,425.83 693.25,433.83 L 693.25,632.50 Q 693.25,640.50 701.25,640.50 L 898.00,640.50" fill="none" stroke="black" stroke-width="1.5" marker-end="url(#arrowhead)" /><path d="M 861.50,509.42 L 871.75,509.42 Q 879.75,509.42 879.75,517.42 L 879.75,648.33 Q 879.75,656.33 887.75,656.33 L 898.00,656.33" fill="none" stroke="black" stroke-width="1.5" marker-end="url(#arrowhead)" /><path d="M 861.50,541.08 L 1188.00,541.08" fill="none" stroke="black" stroke-width="1.5" marker-end="url(#arrowhead)" /><path d="M 861.50,541.08 L 871.75,541.08 Q 879.75,541.08 879.75,549.08 L 879.75,664.17 Q 879.75,672.17 887.75,672.17 L 898.00,672.17" fill="none" stroke="black" stroke-width="1.5" marker-end="url(#arrowhead)" /><circle cx="861.50" cy="541.08" r="3" fill="black" /><path d="M 1048.00,640.50 L 1188.00,640.50" fill="none" stroke="black" stroke-width="1.5" marker-end="url(#arrowhead)" /><rect x="152.0" y="132.0" width="150" height="95" fill="white" stroke="black" stroke-width="1.5" /><text x="227.0" y="164.83333333333334" font-family="Arial, sans-serif" font-size="13" fill="black" font-weight="bold" text-anchor="middle">Prepare Run</text><text x="227.0" y="179.83333333333334" font-family="Arial, sans-serif" font-size="13" fill="black" font-weight="bold" text-anchor="middle">Inputs and</text><text x="227.0" y="194.83333333333334" font-family="Arial, sans-serif" font-size="13" fill="black" font-weight="bold" text-anchor="middle">Workspace</text><text x="296.0" y="221.0" font-family="Arial, sans-serif" font-size="10" fill="black" text-anchor="end">A1</text><rect x="338.5" y="247.25" width="150" height="95" fill="white" stroke="black" stroke-width="1.5" /><text x="413.5" y="287.5833333333333" font-family="Arial, sans-serif" font-size="13" fill="black" font-weight="bold" text-anchor="middle">Research Table</text><text x="413.5" y="302.5833333333333" font-family="Arial, sans-serif" font-size="13" fill="black" font-weight="bold" text-anchor="middle">Context</text><text x="482.5" y="336.25" font-family="Arial, sans-serif" font-size="10" fill="black" text-anchor="end">A2</text><rect x="525.0" y="362.5" width="150" height="95" fill="white" stroke="black" stroke-width="1.5" /><text x="600.0" y="402.8333333333333" font-family="Arial, sans-serif" font-size="13" fill="black" font-weight="bold" text-anchor="middle">Enrich DDL with</text><text x="600.0" y="417.8333333333333" font-family="Arial, sans-serif" font-size="13" fill="black" font-weight="bold" text-anchor="middle">Column Comments</text><text x="669.0" y="451.5" font-family="Arial, sans-serif" font-size="10" fill="black" text-anchor="end">A3</text><rect x="711.5" y="477.75" width="150" height="95" fill="white" stroke="black" stroke-width="1.5" /><text x="786.5" y="518.0833333333334" font-family="Arial, sans-serif" font-size="13" fill="black" font-weight="bold" text-anchor="middle">Validate Comment</text><text x="786.5" y="533.0833333333334" font-family="Arial, sans-serif" font-size="13" fill="black" font-weight="bold" text-anchor="middle">Length</text><text x="855.5" y="566.75" font-family="Arial, sans-serif" font-size="10" fill="black" text-anchor="end">A4</text><rect x="898.0" y="593.0" width="150" height="95" fill="white" stroke="black" stroke-width="1.5" /><text x="973.0" y="633.3333333333334" font-family="Arial, sans-serif" font-size="13" fill="black" font-weight="bold" text-anchor="middle">Publish Audit</text><text x="973.0" y="648.3333333333334" font-family="Arial, sans-serif" font-size="13" fill="black" font-weight="bold" text-anchor="middle">Artifacts</text><text x="1042.0" y="682.0" font-family="Arial, sans-serif" font-size="10" fill="black" text-anchor="end">A5</text><rect x="33.60" y="161.50" width="96.80" height="14.00" fill="white" stroke="none" /><text x="82.0" y="172.5" font-family="Arial, sans-serif" font-size="10" fill="black" text-anchor="middle">Target Table DDL</text><rect x="22.00" y="183.50" width="16.00" height="13.00" fill="white" stroke="none" /><text x="30.0" y="193.5" font-family="Arial, sans-serif" font-size="9" fill="black" font-weight="bold" text-anchor="middle">I1</text><rect x="101.20" y="80.00" width="96.80" height="14.00" fill="white" stroke="none" /><text x="149.6" y="91.0" font-family="Arial, sans-serif" font-size="10" fill="black" text-anchor="middle">Per-Table Config</text><rect x="206.00" y="53.50" width="16.00" height="13.00" fill="white" stroke="none" /><text x="214.0" y="63.5" font-family="Arial, sans-serif" font-size="9" fill="black" font-weight="bold" text-anchor="middle">C0</text><rect x="410.40" y="195.25" width="160.60" height="14.00" fill="white" stroke="none" /><text x="490.7" y="206.25" font-family="Arial, sans-serif" font-size="10" fill="black" text-anchor="middle">Column Description Standard</text><rect x="579.00" y="53.50" width="16.00" height="13.00" fill="white" stroke="none" /><text x="587.0" y="63.5" font-family="Arial, sans-serif" font-size="9" fill="black" font-weight="bold" text-anchor="middle">C1</text><rect x="535.80" y="163.20" width="85.20" height="14.00" fill="white" stroke="none" /><text x="578.4" y="174.20000000000002" font-family="Arial, sans-serif" font-size="10" fill="black" text-anchor="middle">255-Char Limit</text><rect x="629.00" y="53.50" width="16.00" height="13.00" fill="white" stroke="none" /><text x="637.0" y="63.5" font-family="Arial, sans-serif" font-size="9" fill="black" font-weight="bold" text-anchor="middle">C2</text><rect x="285.50" y="117.10" width="149.00" height="14.00" fill="white" stroke="none" /><text x="360.0" y="128.10000000000002" font-family="Arial, sans-serif" font-size="10" fill="black" text-anchor="middle">Certified Data Dictionary</text><rect x="442.50" y="53.50" width="16.00" height="13.00" fill="white" stroke="none" /><text x="450.5" y="63.5" font-family="Arial, sans-serif" font-size="9" fill="black" font-weight="bold" text-anchor="middle">C3</text><rect x="256.00" y="80.00" width="166.40" height="14.00" fill="white" stroke="none" /><text x="339.2" y="91.0" font-family="Arial, sans-serif" font-size="10" fill="black" text-anchor="middle">Moon Units Stage Conventions</text><rect x="256.00" y="53.50" width="16.00" height="13.00" fill="white" stroke="none" /><text x="264.0" y="63.5" font-family="Arial, sans-serif" font-size="9" fill="black" font-weight="bold" text-anchor="middle">C4</text><rect x="78.00" y="500.50" width="120.00" height="14.00" fill="white" stroke="none" /><text x="138.0" y="511.5" font-family="Arial, sans-serif" font-size="10" fill="black" text-anchor="middle">Moon Units Framework</text><rect x="206.00" y="763.50" width="16.00" height="13.00" fill="white" stroke="none" /><text x="214.0" y="773.5" font-family="Arial, sans-serif" font-size="9" fill="black" font-weight="bold" text-anchor="middle">M1</text><rect x="257.80" y="558.12" width="114.20" height="14.00" fill="white" stroke="none" /><text x="314.90000000000003" y="569.125" font-family="Arial, sans-serif" font-size="10" fill="black" text-anchor="middle">Claude Sonnet Agent</text><rect x="380.00" y="763.50" width="16.00" height="13.00" fill="white" stroke="none" /><text x="388.0" y="773.5" font-family="Arial, sans-serif" font-size="9" fill="black" font-weight="bold" text-anchor="middle">M2</text><rect x="341.70" y="602.70" width="67.80" height="14.00" fill="white" stroke="none" /><text x="375.59999999999997" y="613.7" font-family="Arial, sans-serif" font-size="10" fill="black" text-anchor="middle">Alation API</text><rect x="417.50" y="763.50" width="16.00" height="13.00" fill="white" stroke="none" /><text x="425.5" y="773.5" font-family="Arial, sans-serif" font-size="9" fill="black" font-weight="bold" text-anchor="middle">M3</text><rect x="361.80" y="513.55" width="85.20" height="14.00" fill="white" stroke="none" /><text x="404.40000000000003" y="524.55" font-family="Arial, sans-serif" font-size="10" fill="black" text-anchor="middle">Confluence API</text><rect x="455.00" y="763.50" width="16.00" height="13.00" fill="white" stroke="none" /><text x="463.0" y="773.5" font-family="Arial, sans-serif" font-size="9" fill="black" font-weight="bold" text-anchor="middle">M4</text><rect x="168.60" y="556.60" width="79.40" height="14.00" fill="white" stroke="none" /><text x="208.3" y="567.6" font-family="Arial, sans-serif" font-size="10" fill="black" text-anchor="middle">Lake Registry</text><rect x="256.00" y="763.50" width="16.00" height="13.00" fill="white" stroke="none" /><text x="264.0" y="773.5" font-family="Arial, sans-serif" font-size="9" fill="black" font-weight="bold" text-anchor="middle">M5</text><rect x="173.05" y="235.32" width="143.20" height="14.00" fill="white" stroke="none" /><text x="244.65" y="246.31666666666666" font-family="Arial, sans-serif" font-size="10" fill="black" text-anchor="middle">Run Workspace + INPUT.md</text><rect x="536.67" y="177.33" width="108.40" height="14.00" fill="white" stroke="none" /><text x="590.875" y="188.33333333333331" font-family="Arial, sans-serif" font-size="10" fill="black" text-anchor="middle">Lake Repo Checkout</text><rect x="411.75" y="350.57" width="91.00" height="14.00" fill="white" stroke="none" /><text x="457.25" y="361.56666666666666" font-family="Arial, sans-serif" font-size="10" fill="black" text-anchor="middle">Research Report</text><rect x="668.48" y="606.67" width="67.80" height="14.00" fill="white" stroke="none" /><text x="702.375" y="617.6666666666666" font-family="Arial, sans-serif" font-size="10" fill="black" text-anchor="middle">research.md</text><rect x="615.65" y="465.82" width="73.60" height="14.00" fill="white" stroke="none" /><text x="652.4499999999999" y="476.81666666666666" font-family="Arial, sans-serif" font-size="10" fill="black" text-anchor="middle">Enriched DDL</text><rect x="633.05" y="526.17" width="56.20" height="14.00" fill="white" stroke="none" /><text x="661.15" y="537.1666666666666" font-family="Arial, sans-serif" font-size="10" fill="black" text-anchor="middle">enrich.md</text><rect x="807.95" y="575.88" width="67.80" height="14.00" fill="white" stroke="none" /><text x="841.85" y="586.875" font-family="Arial, sans-serif" font-size="10" fill="black" text-anchor="middle">validate.md</text><rect x="985.05" y="523.08" width="79.40" height="14.00" fill="white" stroke="none" /><text x="1024.75" y="534.0833333333334" font-family="Arial, sans-serif" font-size="10" fill="black" text-anchor="middle">Validated DDL</text><rect x="1162.00" y="524.08" width="16.00" height="13.00" fill="white" stroke="none" /><text x="1170.0" y="534.0833333333334" font-family="Arial, sans-serif" font-size="9" fill="black" font-weight="bold" text-anchor="middle">O1</text><rect x="1072.50" y="622.50" width="91.00" height="14.00" fill="white" stroke="none" /><text x="1118.0" y="633.5" font-family="Arial, sans-serif" font-size="10" fill="black" text-anchor="middle">Audit Artifacts</text><rect x="1162.00" y="644.50" width="16.00" height="13.00" fill="white" stroke="none" /><text x="1170.0" y="654.5" font-family="Arial, sans-serif" font-size="9" fill="black" font-weight="bold" text-anchor="middle">O2</text></svg>