<svg xmlns="http://www.w3.org/2000/svg" width="1200" height="850" viewBox="0 0 1200 850"><defs><marker id="arrowhead" markerWidth="10" markerHeight="8" refX="9" refY="4" orient="auto" markerUnits="strokeWidth"><path d="M0,0 L0,8 L9,4 z" fill="black" /></marker></defs><rect x="12" y="12" width="1176" height="826" fill="white" stroke="black" stroke-width="2" /><line x1="12" y1="42" x2="1188" y2="42" stroke="black" stroke-width="1" /><line x1="152" y1="12" x2="152" y2="42" stroke="black" stroke-width="1" /><line x1="1048" y1="12" x2="1048" y2="42" stroke="black" stroke-width="1" /><text x="20" y="23" font-family="Arial, sans-serif" font-size="8" fill="black">NODE:</text><text x="160" y="23" font-family="Arial, sans-serif" font-size="8" fill="black">TITLE:</text><text x="1056" y="23" font-family="Arial, sans-serif" font-size="8" fill="black">NUMBER:</text><text x="20" y="36" font-family="Arial, sans-serif" font-size="14" fill="black" font-weight="bold">A2</text><text x="160" y="36" font-family="Arial, sans-serif" font-size="14" fill="black" font-weight="bold">Research Table Context</text><text x="1056" y="36" font-family="Arial, sans-serif" font-size="14" fill="black" font-weight="bold">0.2</text><line x1="12" y1="788" x2="1188" y2="788" stroke="black" stroke-width="1" /><line x1="968" y1="788" x2="968" y2="838" stroke="black" stroke-width="1" /><text x="20" y="800" font-family="Arial, sans-serif" font-size="8" fill="black">USED AT:</text><text x="976" y="800" font-family="Arial, sans-serif" font-size="8" fill="black">NODE:</text><text x="20" y="814" font-family="Arial, sans-serif" font-size="9" fill="black">AUTHOR: Claude    DATE: 2026-05-19    REV: 0.2</text><text x="976" y="814" font-family="Arial, sans-serif" font-size="9" fill="black" font-weight="bold">A2</text><text x="20" y="828" font-family="Arial, sans-serif" font-size="9" fill="black">PROJECT: Column Comments Enrichment Mission    VIEWPOINT: Data Governance engineer operating the mission</text><text x="976" y="828" font-family="Arial, sans-serif" font-size="9" fill="black">TITLE: Research Table Context</text><path d="M 12.00,179.50 L 152.00,179.50" fill="none" stroke="black" stroke-width="1.5" marker-end="url(#arrowhead)" /><path d="M 12.00,179.50 L 312.25,179.50 Q 320.25,179.50 320.25,187.50 L 320.25,286.75 Q 320.25,294.75 328.25,294.75 L 338.50,294.75" fill="none" stroke="black" stroke-width="1.5" marker-end="url(#arrowhead)" /><path d="M 12.00,179.50 L 498.75,179.50 Q 506.75,179.50 506.75,187.50 L 506.75,402.00 Q 506.75,410.00 514.75,410.00 L 525.00,410.00" fill="none" stroke="black" stroke-width="1.5" marker-end="url(#arrowhead)" /><circle cx="12.00" cy="179.50" r="3" fill="black" /><path d="M 227.00,42.00 L 227.00,132.00" fill="none" stroke="black" stroke-width="1.5" marker-end="url(#arrowhead)" /><path d="M 227.00,42.00 L 227.00,79.00 Q 227.00,87.00 235.00,87.00 L 405.50,87.00 Q 413.50,87.00 413.50,95.00 L 413.50,247.25" fill="none" stroke="black" stroke-width="1.5" marker-end="url(#arrowhead)" /><path d="M 227.00,42.00 L 227.00,79.00 Q 227.00,87.00 235.00,87.00 L 592.00,87.00 Q 600.00,87.00 600.00,95.00 L 600.00,362.50" fill="none" stroke="black" stroke-width="1.5" marker-end="url(#arrowhead)" /><path d="M 227.00,42.00 L 227.00,79.00 Q 227.00,87.00 235.00,87.00 L 965.00,87.00 Q 973.00,87.00 973.00,95.00 L 973.00,593.00" fill="none" stroke="black" stroke-width="1.5" marker-end="url(#arrowhead)" /><circle cx="227.00" cy="42.00" r="3" fill="black" /><path d="M 786.50,42.00 L 786.50,477.75" fill="none" stroke="black" stroke-width="1.5" marker-end="url(#arrowhead)" /><path d="M 227.00,788.00 L 227.00,227.00" fill="none" stroke="black" stroke-width="1.5" marker-end="url(#arrowhead)" /><path d="M 227.00,788.00 L 227.00,812.00 Q 227.00,820.00 235.00,820.00 L 380.50,820.00 Q 388.50,820.00 388.50,812.00 L 388.50,342.25" fill="none" stroke="black" stroke-width="1.5" marker-end="url(#arrowhead)" /><path d="M 227.00,788.00 L 227.00,812.00 Q 227.00,820.00 235.00,820.00 L 567.00,820.00 Q 575.00,820.00 575.00,812.00 L 575.00,457.50" fill="none" stroke="black" stroke-width="1.5" marker-end="url(#arrowhead)" /><path d="M 227.00,788.00 L 227.00,812.00 Q 227.00,820.00 235.00,820.00 L 753.50,820.00 Q 761.50,820.00 761.50,812.00 L 761.50,572.75" fill="none" stroke="black" stroke-width="1.5" marker-end="url(#arrowhead)" /><path d="M 227.00,788.00 L 227.00,812.00 Q 227.00,820.00 235.00,820.00 L 965.00,820.00 Q 973.00,820.00 973.00,812.00 L 973.00,688.00" fill="none" stroke="black" stroke-width="1.5" marker-end="url(#arrowhead)" /><circle cx="227.00" cy="788.00" r="3" fill="black" /><path d="M 625.00,788.00 L 625.00,457.50" fill="none" stroke="black" stroke-width="1.5" marker-end="url(#arrowhead)" /><path d="M 625.00,788.00 L 625.00,812.00 Q 625.00,820.00 633.00,820.00 L 803.50,820.00 Q 811.50,820.00 811.50,812.00 L 811.50,572.75" fill="none" stroke="black" stroke-width="1.5" marker-end="url(#arrowhead)" /><circle cx="625.00" cy="788.00" r="3" fill="black" /><path d="M 438.50,788.00 L 438.50,342.25" fill="none" stroke="black" stroke-width="1.5" marker-end="url(#arrowhead)" /><path d="M 302.00,179.50 L 871.75,179.50 Q 879.75,179.50 879.75,187.50 L 879.75,604.00 Q 879.75,612.00 887.75,612.00 L 898.00,612.00" fill="none" stroke="black" stroke-width="1.5" marker-end="url(#arrowhead)" /><path d="M 488.50,294.75 L 871.75,294.75 Q 879.75,294.75 879.75,302.75 L 879.75,623.00 Q 879.75,631.00 887.75,631.00 L 898.00,631.00" fill="none" stroke="black" stroke-width="1.5" marker-end="url(#arrowhead)" /><path d="M 675.00,410.00 L 685.25,410.00 Q 693.25,410.00 693.25,418.00 L 693.25,642.00 Q 693.25,650.00 701.25,650.00 L 898.00,650.00" fill="none" stroke="black" stroke-width="1.5" marker-end="url(#arrowhead)" /><path d="M 861.50,525.25 L 871.75,525.25 Q 879.75,525.25 879.75,533.25 L 879.75,661.00 Q 879.75,669.00 887.75,669.00 L 898.00,669.00" fill="none" stroke="black" stroke-width="1.5" marker-end="url(#arrowhead)" /><path d="M 1048.00,624.67 L 1188.00,624.67" fill="none" stroke="black" stroke-width="1.5" marker-end="url(#arrowhead)" /><path d="M 1048.00,656.33 L 1188.00,656.33" fill="none" stroke="black" stroke-width="1.5" marker-end="url(#arrowhead)" /><rect x="152.0" y="132.0" width="150" height="95" fill="white" stroke="black" stroke-width="1.5" /><text x="227.0" y="172.33333333333334" font-family="Arial, sans-serif" font-size="13" fill="black" font-weight="bold" text-anchor="middle">Read Table DDL</text><text x="227.0" y="187.33333333333334" font-family="Arial, sans-serif" font-size="13" fill="black" font-weight="bold" text-anchor="middle">and Metadata</text><text x="296.0" y="221.0" font-family="Arial, sans-serif" font-size="10" fill="black" text-anchor="end">A21</text><rect x="338.5" y="247.25" width="150" height="95" fill="white" stroke="black" stroke-width="1.5" /><text x="413.5" y="287.5833333333333" font-family="Arial, sans-serif" font-size="13" fill="black" font-weight="bold" text-anchor="middle">Fetch Confluence</text><text x="413.5" y="302.5833333333333" font-family="Arial, sans-serif" font-size="13" fill="black" font-weight="bold" text-anchor="middle">Design Pages</text><text x="482.5" y="336.25" font-family="Arial, sans-serif" font-size="10" fill="black" text-anchor="end">A22</text><rect x="525.0" y="362.5" width="150" height="95" fill="white" stroke="black" stroke-width="1.5" /><text x="600.0" y="402.8333333333333" font-family="Arial, sans-serif" font-size="13" fill="black" font-weight="bold" text-anchor="middle">Query Alation</text><text x="600.0" y="417.8333333333333" font-family="Arial, sans-serif" font-size="13" fill="black" font-weight="bold" text-anchor="middle">Catalog Metadata</text><text x="669.0" y="451.5" font-family="Arial, sans-serif" font-size="10" fill="black" text-anchor="end">A23</text><rect x="711.5" y="477.75" width="150" height="95" fill="white" stroke="black" stroke-width="1.5" /><text x="786.5" y="518.0833333333334" font-family="Arial, sans-serif" font-size="13" fill="black" font-weight="bold" text-anchor="middle">Load Certified</text><text x="786.5" y="533.0833333333334" font-family="Arial, sans-serif" font-size="13" fill="black" font-weight="bold" text-anchor="middle">Data Dictionary</text><text x="855.5" y="566.75" font-family="Arial, sans-serif" font-size="10" fill="black" text-anchor="end">A24</text><rect x="898.0" y="593.0" width="150" height="95" fill="white" stroke="black" stroke-width="1.5" /><text x="973.0" y="633.3333333333334" font-family="Arial, sans-serif" font-size="13" fill="black" font-weight="bold" text-anchor="middle">Compile Research</text><text x="973.0" y="648.3333333333334" font-family="Arial, sans-serif" font-size="13" fill="black" font-weight="bold" text-anchor="middle">Report</text><text x="1042.0" y="682.0" font-family="Arial, sans-serif" font-size="10" fill="black" text-anchor="end">A25</text><rect x="-3.60" y="161.50" width="143.20" height="14.00" fill="white" stroke="none" /><text x="68.0" y="172.5" font-family="Arial, sans-serif" font-size="10" fill="black" text-anchor="middle">Run Workspace + INPUT.md</text><path d="M 8.50,174.50 A 5,5 0 0 0 8.50,184.50" fill="none" stroke="black" stroke-width="1" /><path d="M 15.50,174.50 A 5,5 0 0 1 15.50,184.50" fill="none" stroke="black" stroke-width="1" /><rect x="-37.25" y="183.50" width="134.50" height="13.00" fill="white" stroke="none" /><text x="30.0" y="193.5" font-family="Arial, sans-serif" font-size="9" fill="black" font-weight="bold" text-anchor="middle">int_workspace_to_research</text><rect x="126.20" y="80.00" width="96.80" height="14.00" fill="white" stroke="none" /><text x="174.6" y="91.0" font-family="Arial, sans-serif" font-size="10" fill="black" text-anchor="middle">Per-Table Config</text><rect x="231.00" y="53.50" width="16.00" height="13.00" fill="white" stroke="none" /><text x="239.0" y="63.5" font-family="Arial, sans-serif" font-size="9" fill="black" font-weight="bold" text-anchor="middle">C0</text><rect x="633.50" y="252.88" width="149.00" height="14.00" fill="white" stroke="none" /><text x="708.0" y="263.875" font-family="Arial, sans-serif" font-size="10" fill="black" text-anchor="middle">Certified Data Dictionary</text><rect x="790.50" y="53.50" width="16.00" height="13.00" fill="white" stroke="none" /><text x="798.5" y="63.5" font-family="Arial, sans-serif" font-size="9" fill="black" font-weight="bold" text-anchor="middle">C3</text><rect x="108.80" y="500.50" width="114.20" height="14.00" fill="white" stroke="none" /><text x="165.9" y="511.5" font-family="Arial, sans-serif" font-size="10" fill="black" text-anchor="middle">Claude Sonnet Agent</text><rect x="231.00" y="763.50" width="16.00" height="13.00" fill="white" stroke="none" /><text x="239.0" y="773.5" font-family="Arial, sans-serif" font-size="9" fill="black" font-weight="bold" text-anchor="middle">M2</text><rect x="553.20" y="615.75" width="67.80" height="14.00" fill="white" stroke="none" /><text x="587.1" y="626.75" font-family="Arial, sans-serif" font-size="10" fill="black" text-anchor="middle">Alation API</text><rect x="629.00" y="763.50" width="16.00" height="13.00" fill="white" stroke="none" /><text x="637.0" y="773.5" font-family="Arial, sans-serif" font-size="9" fill="black" font-weight="bold" text-anchor="middle">M3</text><rect x="349.30" y="558.12" width="85.20" height="14.00" fill="white" stroke="none" /><text x="391.90000000000003" y="569.125" font-family="Arial, sans-serif" font-size="10" fill="black" text-anchor="middle">Confluence API</text><rect x="442.50" y="763.50" width="16.00" height="13.00" fill="white" stroke="none" /><text x="450.5" y="773.5" font-family="Arial, sans-serif" font-size="9" fill="black" font-weight="bold" text-anchor="middle">M4</text><rect x="516.38" y="161.50" width="149.00" height="14.00" fill="white" stroke="none" /><text x="590.875" y="172.5" font-family="Arial, sans-serif" font-size="10" fill="black" text-anchor="middle">DDL + table.yaml Excerpts</text><rect x="609.62" y="276.75" width="149.00" height="14.00" fill="white" stroke="none" /><text x="684.125" y="287.75" font-family="Arial, sans-serif" font-size="10" fill="black" text-anchor="middle">Confluence Page Summaries</text><rect x="493.85" y="523.00" width="195.40" height="14.00" fill="white" stroke="none" /><text x="591.5500000000001" y="534.0" font-family="Arial, sans-serif" font-size="10" fill="black" text-anchor="middle">Alation Columns + Source Comments</text><rect x="749.95" y="590.12" width="125.80" height="14.00" fill="white" stroke="none" /><text x="812.85" y="601.125" font-family="Arial, sans-serif" font-size="10" fill="black" text-anchor="middle">Abbreviation Mappings</text><rect x="1072.50" y="606.67" width="91.00" height="14.00" fill="white" stroke="none" /><text x="1118.0" y="617.6666666666666" font-family="Arial, sans-serif" font-size="10" fill="black" text-anchor="middle">Research Report</text><path d="M 1184.50,619.67 A 5,5 0 0 0 1184.50,629.67" fill="none" stroke="black" stroke-width="1" /><path d="M 1191.50,619.67 A 5,5 0 0 1 1191.50,629.67" fill="none" stroke="black" stroke-width="1" /><rect x="1118.41" y="628.67" width="103.18" height="13.00" fill="white" stroke="none" /><text x="1170.0" y="638.6666666666666" font-family="Arial, sans-serif" font-size="9" fill="black" font-weight="bold" text-anchor="middle">out_research_report</text><rect x="1084.10" y="660.33" width="67.80" height="14.00" fill="white" stroke="none" /><text x="1118.0" y="671.3333333333334" font-family="Arial, sans-serif" font-size="10" fill="black" text-anchor="middle">research.md</text><path d="M 1184.50,651.33 A 5,5 0 0 0 1184.50,661.33" fill="none" stroke="black" stroke-width="1" /><path d="M 1191.50,651.33 A 5,5 0 0 1 1191.50,661.33" fill="none" stroke="black" stroke-width="1" /><rect x="1128.85" y="639.33" width="82.30" height="13.00" fill="white" stroke="none" /><text x="1170.0" y="649.3333333333334" font-family="Arial, sans-serif" font-size="9" fill="black" font-weight="bold" text-anchor="middle">out_research_md</text></svg>